<svg width="56" height="58" viewBox="0 0 56 58" fill="none" xmlns="http://www.w3.org/2000/svg">
<path d="M35.3829 22.2171C40.7314 22.2171 44.0229 14.4 44.0229 9.46286C44.0229 5.34857 41.9657 0.411428 37.8514 0.411428C32.5029 0.411428 29.2114 8.22857 29.2114 13.1657C29.2114 17.28 31.2686 22.2171 35.3829 22.2171ZM19.7486 22.2171C23.8629 22.2171 25.92 17.28 25.92 13.1657C25.92 7.81714 22.6286 0 17.28 0C13.1657 0 11.1086 4.93714 11.1086 9.05143C10.6971 14.4 13.9886 22.2171 19.7486 22.2171ZM50.1943 18.1029C44.8457 18.1029 41.1429 25.5086 41.1429 30.8571C41.1429 34.56 42.7886 38.2629 46.4914 38.2629C51.84 38.2629 55.5428 30.8571 55.5428 25.5086C55.5428 21.8057 53.4857 18.1029 50.1943 18.1029ZM14.4 30.8571C14.4 25.5086 10.2857 18.1029 5.34857 18.1029C1.64571 18.1029 0 21.8057 0 25.5086C0 30.8571 4.11429 38.2629 9.05143 38.2629C12.7543 38.2629 14.4 34.56 14.4 30.8571ZM27.5657 30.0343C19.3371 30.0343 8.22857 43.2 8.22857 52.2514C8.22857 56.3657 11.1086 57.6 14.4 57.6C19.3371 57.6 23.04 54.3086 27.5657 54.3086C31.68 54.3086 35.3829 57.6 39.9086 57.6C43.2 57.6 46.9029 56.7771 46.9029 52.2514C46.9029 43.2 35.7943 30.0343 27.5657 30.0343Z" fill="#FBAE03"/>
</svg>
