<svg width="94" height="94" viewBox="0 0 94 94" fill="none" xmlns="http://www.w3.org/2000/svg">
<path d="M86.1936 21.4107C84.0095 18.7857 80.9768 17.0063 77.6198 16.3802C77.2194 14.3153 76.3801 12.3604 75.1587 10.6479C73.9373 8.93542 72.3623 7.50525 70.5404 6.45415C68.7184 5.40306 66.6919 4.75557 64.598 4.55549C62.5041 4.35541 60.3917 4.60741 58.4036 5.29444C56.4156 5.98147 54.5983 7.08751 53.0747 8.5377C51.5511 9.9879 50.3568 11.7484 49.5725 13.7002C48.7883 15.6519 48.4324 17.7494 48.5289 19.8506C48.6255 21.9518 49.1722 24.0078 50.1322 25.8794L25.8978 50.1321C24.0262 49.1721 21.9702 48.6254 19.869 48.5288C17.7678 48.4323 15.6704 48.7882 13.7186 49.5724C11.7669 50.3567 10.0063 51.551 8.55614 53.0746C7.10594 54.5982 5.99991 56.4155 5.31288 58.4036C4.62584 60.3916 4.37384 62.5041 4.57392 64.5979C4.774 66.6918 5.42149 68.7183 6.47259 70.5403C7.52368 72.3623 8.95385 73.9372 10.6663 75.1586C12.3788 76.38 14.3337 77.2193 16.3986 77.6197C16.7983 79.6852 17.637 81.6407 18.8581 83.3539C20.0791 85.0671 21.6539 86.498 23.4759 87.5498C25.2979 88.6015 27.3246 89.2496 29.4188 89.4501C31.513 89.6506 33.6258 89.3989 35.6143 88.712C37.6028 88.0251 39.4205 86.919 40.9444 85.4686C42.4683 84.0182 43.6629 82.2574 44.4472 80.3053C45.2316 78.3532 45.5874 76.2554 45.4906 74.1538C45.3938 72.0523 44.8467 69.996 43.8863 68.1243L68.139 43.8679C71.1528 45.4525 74.6236 45.9408 77.9576 45.2491C81.2917 44.5575 84.2818 42.729 86.4166 40.0763C88.5515 37.4236 89.6983 34.1116 89.6609 30.7068C89.6236 27.302 88.4045 24.0159 86.212 21.4107H86.1936ZM79.3493 34.7029C78.4283 35.7531 77.1633 36.4408 75.7811 36.6427C74.399 36.8446 72.9901 36.5474 71.8072 35.8044C70.3978 34.9124 68.7267 34.5268 67.069 34.711C65.4112 34.8952 63.8655 35.6383 62.6863 36.8179L36.8363 62.6679C35.6573 63.8476 34.9149 65.3934 34.7314 67.0512C34.5478 68.7089 34.9341 70.3798 35.8265 71.7888C36.3257 72.5935 36.623 73.5069 36.693 74.4512C36.7631 75.3955 36.6039 76.3428 36.2289 77.2123C35.8539 78.0818 35.2743 78.8478 34.5395 79.445C33.8046 80.0422 32.9363 80.453 32.0085 80.6423C31.0807 80.8316 30.1209 80.7938 29.2108 80.5321C28.3008 80.2705 27.4675 79.7928 26.7818 79.1396C26.0962 78.4865 25.5787 77.6773 25.2732 76.781C24.9678 75.8847 24.8835 74.9278 25.0276 73.9919C25.1233 73.3644 25.0823 72.7237 24.9075 72.1135C24.7326 71.5033 24.428 70.9381 24.0145 70.4566C23.6009 69.975 23.0882 69.5885 22.5114 69.3235C21.9347 69.0585 21.3075 68.9212 20.6727 68.9211C20.4453 68.9201 20.2181 68.9372 19.9934 68.9725C19.0572 69.1174 18.0998 69.0337 17.2029 68.7287C16.306 68.4236 15.4962 67.9062 14.8425 67.2205C14.1888 66.5348 13.7106 65.7012 13.4487 64.7908C13.1868 63.8803 13.149 62.9201 13.3384 61.9919C13.5278 61.0636 13.9389 60.195 14.5366 59.46C15.1344 58.725 15.9009 58.1454 16.771 57.7707C17.6412 57.396 18.589 57.2373 19.5337 57.308C20.4784 57.3788 21.392 57.677 22.1965 58.1772C23.6056 59.0682 25.2759 59.4533 26.9329 59.2691C28.5898 59.0849 30.1348 58.3425 31.3138 57.1637L57.1638 31.3137C58.3434 30.1345 59.0865 28.5888 59.2707 26.9311C59.4549 25.2733 59.0692 23.6022 58.1772 22.1928C57.6771 21.3882 57.3789 20.4746 57.3081 19.5299C57.2373 18.5852 57.3961 17.6374 57.7708 16.7673C58.1455 15.8972 58.725 15.1306 59.46 14.5329C60.195 13.9352 61.0637 13.5241 61.9919 13.3347C62.9202 13.1452 63.8804 13.1831 64.7909 13.445C65.7013 13.7069 66.5349 14.1851 67.2206 14.8388C67.9063 15.4925 68.4237 16.3023 68.7288 17.1992C69.0338 18.0961 69.1175 19.0535 68.9725 19.9897C68.8653 20.6752 68.9216 21.3764 69.1366 22.0362C69.3517 22.6959 69.7195 23.2955 70.2102 23.7862C70.7009 24.2768 71.3005 24.6447 71.9602 24.8597C72.6199 25.0748 73.3211 25.131 74.0067 25.0238C75.2007 24.8325 76.4247 25.0143 77.5115 25.5444C78.5984 26.0745 79.4952 26.9271 80.0795 27.9858C80.6639 29.0444 80.9073 30.2577 80.7766 31.4598C80.6459 32.662 80.1475 33.7945 79.3493 34.7029Z" fill="white"/>
</svg>
