<svg width="81" height="81" viewBox="0 0 81 81" fill="none" xmlns="http://www.w3.org/2000/svg">
<path d="M40.4998 34.7863C45.0423 34.7863 48.8558 37.8643 49.9331 42.0261C51.2874 47.2441 51.1043 52.9627 57.0578 55.9322C62.3423 57.7304 64.3414 59.9903 64.3414 66.0491C64.3414 70.8848 60.2039 76.025 54.8692 76.6665C48.9044 77.5624 44.2615 76.3911 40.4982 74.2463C36.7349 76.3911 32.0904 77.564 26.1337 76.6665C20.7958 76.025 16.6599 70.8669 16.6599 66.0491C16.6599 60.1199 18.7934 57.6105 24.0682 55.8917C30.5595 52.5755 29.6879 46.763 31.1362 41.7701C31.7316 39.7499 32.966 37.9772 34.6543 36.718C36.3426 35.4588 38.3937 34.781 40.4998 34.7863ZM70.2382 31.1834C68.6295 29.7854 62.0636 35.2431 59.9981 37.9421C58.7426 39.3822 57.9618 41.3619 57.9618 43.5456C57.9618 47.9375 61.1046 51.4982 64.9715 51.4982C67.9135 51.4982 70.4309 49.4522 71.4726 46.5426C73.496 41.31 73.6077 34.1091 70.2382 31.1834ZM10.7582 31.1834C7.3935 34.1091 7.50204 41.31 9.52866 46.5426C10.5703 49.4522 13.0862 51.4982 16.0265 51.4982C19.8967 51.4982 23.0362 47.9375 23.0362 43.5456C23.0362 41.3619 22.257 39.3822 21.0015 37.9421C18.9344 35.2431 12.3701 29.7854 10.7582 31.1834ZM49.1425 2.49807C65.4851 5.27151 64.3381 32.7953 51.2534 30.5775C47.4788 29.936 44.6762 26.4984 44.2501 22.3917C43.8176 18.2153 42.844 1.43211 49.1425 2.49807ZM31.8571 2.49807C38.1573 1.43049 37.1821 18.2137 36.7495 22.3901C36.3235 26.4984 33.5241 29.9344 29.7495 30.5759C16.6615 32.7969 15.5162 5.27151 31.8571 2.49807Z" fill="white"/>
</svg>
