<svg width="81" height="81" viewBox="0 0 81 81" fill="none" xmlns="http://www.w3.org/2000/svg">
<path fill-rule="evenodd" clip-rule="evenodd" d="M40.5 9.28125C32.2203 9.28125 24.2797 12.5704 18.425 18.425C12.5704 24.2797 9.28125 32.2203 9.28125 40.5C9.28125 48.7797 12.5704 56.7203 18.425 62.575C24.2797 68.4296 32.2203 71.7187 40.5 71.7188C48.7797 71.7188 56.7203 68.4296 62.575 62.575C68.4296 56.7203 71.7188 48.7797 71.7188 40.5C71.7188 32.2203 68.4296 24.2797 62.575 18.425C56.7203 12.5704 48.7797 9.28125 40.5 9.28125ZM4.21875 40.5C4.21875 20.4626 20.4626 4.21875 40.5 4.21875C60.5374 4.21875 76.7812 20.4626 76.7812 40.5C76.7812 60.5374 60.5374 76.7812 40.5 76.7812C20.4626 76.7812 4.21875 60.5374 4.21875 40.5ZM28.3399 52.4914C28.5381 52.2242 28.787 51.9986 29.0724 51.8277C29.3578 51.6568 29.6742 51.5438 30.0033 51.4952C30.3324 51.4466 30.6679 51.4634 30.9906 51.5445C31.3132 51.6257 31.6167 51.7697 31.8836 51.9682C34.3406 53.7907 37.3073 54.8438 40.5 54.8438C43.6927 54.8438 46.6594 53.7874 49.1164 51.9682C49.3825 51.7612 49.6873 51.6093 50.013 51.5217C50.3386 51.434 50.6785 51.4123 51.0126 51.4578C51.3467 51.5034 51.6684 51.6152 51.9587 51.7867C52.249 51.9583 52.5021 52.1862 52.7032 52.4569C52.9042 52.7276 53.0491 53.0358 53.1294 53.3634C53.2097 53.6909 53.2237 54.0312 53.1706 54.3642C53.1176 54.6972 52.9985 55.0163 52.8204 55.3026C52.6423 55.589 52.4088 55.8369 52.1336 56.0317C48.7746 58.5431 44.6941 59.9021 40.5 59.9062C36.3059 59.9021 32.2254 58.5431 28.8664 56.0317C28.3271 55.632 27.9687 55.0345 27.87 54.3706C27.7713 53.7067 27.9403 53.0307 28.3399 52.4914Z" fill="white"/>
<path d="M54 35.4375C54 38.232 52.488 40.5 50.625 40.5C48.762 40.5 47.25 38.232 47.25 35.4375C47.25 32.643 48.762 30.375 50.625 30.375C52.488 30.375 54 32.643 54 35.4375ZM33.75 35.4375C33.75 38.232 32.238 40.5 30.375 40.5C28.512 40.5 27 38.232 27 35.4375C27 32.643 28.512 30.375 30.375 30.375C32.238 30.375 33.75 32.643 33.75 35.4375Z" fill="white"/>
</svg>
