<svg width="106" height="106" viewBox="0 0 106 106" fill="none" xmlns="http://www.w3.org/2000/svg">
<path d="M21.4207 97.1667V53.5521H30.254V88.3334H61.1707V67.023L72.7644 55.4292C74.8991 53.2945 76.5554 50.9021 77.7332 48.2521C78.9109 45.6021 79.4998 42.7681 79.4998 39.75C79.4998 36.8056 78.8918 34.0084 77.6758 31.3584C76.4597 28.7084 74.8226 26.316 72.7644 24.1813L70.004 21.3105L55.9811 35.3334H38.3144L33.5665 40.0813L27.2728 33.898L34.6707 26.5H52.3373L70.004 8.83337L79.0582 17.8875C82.0026 20.832 84.2846 24.1636 85.904 27.8825C87.5235 31.6013 88.3332 35.5572 88.3332 39.75C88.3332 43.9459 87.5235 47.9032 85.904 51.622C84.2846 55.3409 82.0026 58.671 79.0582 61.6125L70.004 70.6667V97.1667H21.4207ZM43.1728 76.5188L20.2061 53.5521C19.3964 52.7424 18.7707 51.7855 18.329 50.6813C17.8873 49.5771 17.6665 48.4362 17.6665 47.2584C17.6665 46.0806 17.8873 44.9573 18.329 43.8885C18.7707 42.8196 19.3964 41.8818 20.2061 41.075L29.4811 31.6896L43.1728 45.2709C45.2339 47.332 46.8356 49.7067 47.9781 52.395C49.1205 55.0832 49.6903 57.8981 49.6873 60.8396C49.6873 63.7841 49.1353 66.6004 48.0311 69.2887C46.9269 71.977 45.3075 74.387 43.1728 76.5188Z" fill="white"/>
</svg>
